<?xml version="1.0" encoding="UTF-8"?>
<svg id="Layer_1" xmlns="http://www.w3.org/2000/svg" version="1.1" viewBox="0 0 1890 390.5">
  <!-- Generator: Adobe Illustrator 29.4.0, SVG Export Plug-In . SVG Version: 2.1.0 Build 29)  -->
  <defs>
    <style>
      .st0 {
        fill: #fff;
      }
    </style>
  </defs>
  <g>
    <path d="M1075.4,168.3l-13,135.2h-41.8l13-135.2h-53.2l3.7-38.8h148.1l-3.7,38.8h-53.1Z"/>
    <path d="M1215.6,246.1h-18.6l-5.5,57.4h-41.8l16.7-173.9h66.1c43.7,0,67.1,22.9,63.7,58.9-2.3,23.9-15.7,41.5-37.6,49.4l33.5,65.6h-49.5l-27-57.4h0ZM1227.2,212.8c15.4,0,24.6-7.7,26-22.4,1.4-14.4-5.7-23.1-21.9-23.1h-26.8l-4.4,45.5h27.1Z"/>
    <path d="M1372.1,274.7l-13.2,28.8h-44l83.9-173.9h47.5l50.6,173.9h-44.7l-7.7-28.8h-72.4ZM1425.3,202.1c-4.1-14.4-7-25.3-7.2-25.6h-.8c-.3.2-5.3,10.9-12.1,25.4l-15.8,34.8h45l-9.1-34.6Z"/>
    <path d="M1581.2,168.3l-3.2,33.3h64.4l-3.7,38.8h-64.4l-6.1,63.1h-41.8l16.7-173.9h124.5l-3.7,38.8h-82.7q0-.1,0-.1Z"/>
    <path d="M1782.8,126.1c53.2,0,88.1,37.3,83,90.5s-47.2,90.5-100.4,90.5-88.1-37.3-83-90.5,47.2-90.5,100.4-90.5ZM1769.2,267.5c28.8,0,51.6-19.9,54.6-50.9,3-31.3-15.9-51.2-44.8-51.2s-51.6,19.9-54.6,51.2c-3,31,16,50.9,44.8,50.9Z"/>
    <path d="M882.5,274.1l-149.1-14.7-3.4,34.9c-.2,1.9,1.2,3.6,3.2,3.8l183,18c2,.2,3.8-1.3,4-3.3l18-183.1c.2-1.9-1.2-3.6-3.1-3.7l-35-3.4h0l-14.7,149.2c-.2,1.4-1.5,2.5-2.9,2.3h0Z"/>
    <path d="M880.9,120.8l-129.8-12.8c-1.5,0-2.8.9-2.9,2.4l-12.9,129.8,34.6,3.4c2.1.2,4-1.3,4.2-3.4l8.5-86.4c.2-2.1,2.1-3.7,4.3-3.5l86.1,8.5c2.3.2,4.3-1.4,4.5-3.7l3.4-34.3h0Z"/>
    <g>
      <polygon points="1764 106.7 1729.4 106.7 1733 72 1767.7 72 1764 106.7"/>
      <polygon points="1836.1 106.7 1801.4 106.7 1805.1 72 1839.7 72 1836.1 106.7"/>
    </g>
  </g>
  <g>
    <rect width="650.8" height="390.5"/>
    <path class="st0" d="M572.3,321.8c2.8-7.9,11.5-24.9,22.1-24.9s3.3.9,3.9,2.3c.7,1.5.6,3.5-.2,5.2-3.7,8.9-14.2,15.4-25.8,17.3M507,307c-.4,7.5-11,31-24.2,31s-6.1-5.8-4.9-10.8c1.9-8.1,13.1-27.9,23.5-27.9s5.9,3.9,5.6,7.8M194.9,333.1c-9.9,6.3-19.8,10.1-29.8,10.1-15.1,0-23.6-5.8-23.6-13.2s4.9-9.9,13.8-9.9,25.2,6.1,39.6,13M571.2,327.1c8.6-1.4,35.9-5.7,39.8-19.4,3.2-11.2-7.4-16.7-18.2-16.7-21.5,0-43.3,13.3-48.8,35.2-.3,1.1-.5,2.3-.6,3.5-6.7,5.7-13.2,8.8-16.8,8.8s-4.5-2.8-2.7-6.3l34.3-66.4h-27.9l-18.3,35.4c-1.4-5-7-10.7-19.3-10.7-23.4,0-37.1,19.4-41.9,32.7-.8,2.3-1.4,4.5-1.6,6.7-6.6,5.6-13,8.6-16.6,8.6s-4.5-2.8-2.6-6.3l9.9-19.2c5.1-9.9.6-20.8-13.2-20.8s-22.8,6.4-36.2,16.2l7.5-14.5h-28.8l-8.5,16.4c-9.2,17.9-25.5,28.2-32.2,28.2s-4.5-2.8-2.6-6.3l20.8-38.4h-28.8l-11.6,21.4c-4.3,8-15,19.8-32.5,19.8s-24-3-36.5-6.9c20-12.1,40.1-28.9,58.7-50.4,36.9-42.7,61.4-58.9,101.9-58.9s71.8,19.8,71.8,36.1-6,16.5-10.9,18.8l.7,4.2c23.2-.9,36.2-12.3,36.2-25.5,0-23-39.5-40.5-101.8-40.5s-100.1,22.2-131.5,55.4c-17,18-33.8,37.9-50.5,52.7-14.2-4.3-28.9-7.8-44.2-7.8-29.9,0-48.8,7.5-48.8,20.5s21.2,18.7,46.2,18.7,30.2-3.5,47-10.5c13.2,5.8,27,10.5,40.9,10.5s33.6-9.3,43.6-18c-4.8,9.9,1.3,18,12.4,18s26.6-6.1,40.4-18.9l-8.9,17.2h28.8l2.5-5c6-11.6,20.8-38,35.4-38s5.2,3.9,3.1,8l-9.3,17.9c-5.3,10.3.6,18.8,11.9,18.8s23.6-5.1,36.4-15.6c1.2,9.2,8.2,15.6,18,15.6s24.9-9.4,29.6-13.8c-.7,6.6,2.7,13.8,12.4,13.8s21.8-5.2,34.6-16c1.6,8.9,9.2,17.1,25.8,17.1s31.1-5.9,42.3-13.2v-5.2c-9.4,4.5-17.8,8-27.4,8s-15-6.7-13.2-15.1M358.8,271.8c1.1-7.3-4.5-13.2-12.5-13.2s-15.5,5.9-16.6,13.2c-1.1,7.3,4.5,13.2,12.5,13.2s15.5-5.9,16.6-13.2"/>
    <g>
      <path class="st0" d="M40.7,72.5v-31.8h4.3v29h10v2.9h-14.2Z"/>
      <path class="st0" d="M62.6,42.7c-1.3,0-2.4-1-2.4-2.2s1.1-2.3,2.4-2.3,2.4,1,2.4,2.3-1.1,2.2-2.4,2.2ZM60.6,72.5v-24.9h4.1v24.9h-4.1Z"/>
      <path class="st0" d="M85.5,72.5v-17.9c0-2.3-1-4.9-5.2-4.9s-3.4.3-4.7.9v21.9h-4.1v-23.6c2.2-1.1,5.1-1.8,9.1-1.8,6.9,0,9,3.8,9,7.4v18h-4.1Z"/>
      <path class="st0" d="M105.5,72.9c-7.1,0-11-5-11-12.5s4.4-13.1,10.8-13.1,2.6.2,3.9.6v-11.7h4v35c-1.7,1-4.3,1.8-7.8,1.8ZM109.3,50.1c-1-.3-2-.5-3.1-.5-5.8,0-7.6,5-7.6,10.4s2,10.2,7.1,10.2,2.8-.2,3.6-.7v-19.4h0Z"/>
      <path class="st0" d="M122.3,61.5c.5,5.6,3.1,8.4,7.6,8.4s4.9-.7,6.1-1.4l1.1,2.7c-1.5.9-4.2,1.7-7.5,1.7-6.5,0-11.1-4.1-11.1-13s4.2-12.9,10-12.9,9.6,3.9,9.5,12.2c0,0-15.7,2.3-15.7,2.3ZM128.3,49.7c-3.6,0-6.3,2.9-6.2,9.7l11.9-1.8c0-5.6-2.2-7.9-5.7-7.9Z"/>
      <path class="st0" d="M179.9,72.5c0-.4-2.4-23.8-2.4-23.8-.2-2-.2-3.8-.2-3.8h0s-.3,1.8-.9,3.8c0,0-6.6,23.3-6.8,23.8h-2.8c-.1-.5-6.7-23.9-6.7-23.9-.5-1.9-.9-3.7-.9-3.7h0s0,1.8-.2,3.7c0,0-2.4,23.4-2.5,23.9h-3.7l3.8-31.8h4.5l6.4,23c.6,2.1.8,3.6.8,3.6h0s.2-1.5.8-3.6l6.6-23h4.5l3.8,31.8h-4,0Z"/>
      <path class="st0" d="M198,72.9c-6.5,0-9.5-2.8-9.5-7.4,0-6.6,6.2-8.6,13.9-9.3v-1.5c0-3.8-2.3-5-5.5-5s-4.6.9-6,1.6l-1-2.4c1.4-.8,4.2-1.8,7.6-1.8s8.7,2,8.7,8.1v16c-1.9,1.1-4.8,1.8-8.3,1.8h0ZM202.5,58.3c-6.3.8-10,2.1-10,7.2s2.2,5.1,5.9,5.1,3.1-.3,4.1-.8v-11.4Z"/>
      <path class="st0" d="M220.4,72.7c-4.5,0-6.2-3.2-6.2-6.3v-16.3h-2.9v-2.5h2.9v-5.7l4.1-1.2v7h4.4v2.5h-4.4v16.2c0,2,.9,3.6,3.1,3.6s.8,0,1.2-.2v2.6c-.5.1-1.2.4-2.2.4h0Z"/>
      <path class="st0" d="M230.4,61.5c.5,5.6,3.1,8.4,7.6,8.4s4.9-.7,6.1-1.4l1.1,2.7c-1.5.9-4.2,1.7-7.5,1.7-6.5,0-11.1-4.1-11.1-13s4.2-12.9,10-12.9,9.6,3.9,9.5,12.2l-15.7,2.3h0ZM236.4,49.7c-3.6,0-6.3,2.9-6.2,9.7l11.9-1.8c0-5.6-2.2-7.9-5.7-7.9Z"/>
      <path class="st0" d="M262,50.2c-2-.6-4.4-.4-5.7.5v21.8h-4.1v-23.6c2.4-1.2,4.8-1.9,10.7-1.8l-1,3.1h0Z"/>
      <path class="st0" d="M270.8,42.7c-1.3,0-2.4-1-2.4-2.2s1.1-2.3,2.4-2.3,2.4,1,2.4,2.3-1.1,2.2-2.4,2.2ZM268.8,72.5v-24.9h4.1v24.9h-4.1Z"/>
      <path class="st0" d="M288.4,72.9c-6.5,0-9.5-2.8-9.5-7.4,0-6.6,6.2-8.6,13.9-9.3v-1.5c0-3.8-2.3-5-5.5-5s-4.6.9-6,1.6l-1-2.4c1.4-.8,4.2-1.8,7.6-1.8s8.7,2,8.7,8.1v16c-1.9,1.1-4.8,1.8-8.3,1.8h0ZM292.8,58.3c-6.3.8-10,2.1-10,7.2s2.2,5.1,5.9,5.1,3.1-.3,4.1-.8v-11.4h0Z"/>
      <path class="st0" d="M303.2,72.5v-36.3h4.1v36.3h-4.1Z"/>
      <path class="st0" d="M341.1,72.5v-15h-12.2v15h-4.3v-31.8h4.3v14h12.2v-14h4.3v31.8h-4.3Z"/>
      <path class="st0" d="M360.6,72.9c-6.5,0-9.5-2.8-9.5-7.4,0-6.6,6.2-8.6,13.9-9.3v-1.5c0-3.8-2.3-5-5.5-5s-4.6.9-6,1.6l-1-2.4c1.4-.8,4.2-1.8,7.6-1.8s8.7,2,8.7,8.1v16c-1.9,1.1-4.8,1.8-8.3,1.8h0ZM365.1,58.3c-6.3.8-10,2.1-10,7.2s2.2,5.1,5.9,5.1,3.1-.3,4.1-.8v-11.4h0Z"/>
      <path class="st0" d="M389.4,72.5v-17.9c0-2.3-1-4.9-5.2-4.9s-3.4.3-4.7.9v21.9h-4.1v-23.6c2.2-1.1,5.1-1.8,9.1-1.8,6.9,0,9,3.8,9,7.4v18h-4.1Z"/>
      <path class="st0" d="M409.3,72.9c-7.1,0-11-5-11-12.5s4.4-13.1,10.8-13.1,2.6.2,3.9.6v-11.7h4v35c-1.7,1-4.4,1.8-7.8,1.8h0ZM413.1,50.1c-1-.3-2-.5-3.1-.5-5.8,0-7.6,5-7.6,10.4s2,10.2,7.1,10.2,2.8-.2,3.6-.7v-19.4h0Z"/>
      <path class="st0" d="M424.1,72.5v-36.3h4.1v36.3h-4.1Z"/>
      <path class="st0" d="M437.4,42.7c-1.3,0-2.4-1-2.4-2.2s1.1-2.3,2.4-2.3,2.4,1,2.4,2.3-1.1,2.2-2.4,2.2ZM435.3,72.5v-24.9h4.1v24.9h-4.1Z"/>
      <path class="st0" d="M460.3,72.5v-17.9c0-2.3-1-4.9-5.2-4.9s-3.4.3-4.7.9v21.9h-4.1v-23.6c2.2-1.1,5.1-1.8,9.1-1.8,6.9,0,9,3.8,9,7.4v18h-4.1Z"/>
      <path class="st0" d="M478.5,82.9c-3.3,0-6.1-.7-7.7-1.7l1.2-2.7c1.4.8,3.6,1.5,5.8,1.5,4.6,0,6.3-2.8,6.3-6.5v-1.8c-1.1.7-2.8,1.1-5,1.1-6,0-9.8-4.7-9.8-12.3s3.8-13.4,11.3-13.4,6,.8,7.4,1.8v24.1c0,6.3-3.6,9.9-9.6,9.9h0ZM484.2,50.2c-.9-.5-2.1-.7-3.6-.7-5,0-7.2,4.2-7.2,10.8s2.1,10,6.9,10,3-.4,3.9-1v-19.1h0Z"/>
    </g>
  </g>
</svg>