<?xml version="1.0" encoding="utf-8"?>
<!-- Generator: Adobe Illustrator 28.1.0, SVG Export Plug-In . SVG Version: 6.00 Build 0)  -->
<svg version="1.1" id="Layer_1" xmlns="http://www.w3.org/2000/svg" xmlns:xlink="http://www.w3.org/1999/xlink" x="0px" y="0px"
	 viewBox="0 0 1297.59 392.66" style="enable-background:new 0 0 1297.59 392.66;" xml:space="preserve">
<style type="text/css">
	.st0{fill:#BA2029;}
</style>
<g>
	<path d="M424.65,170.53l-13.01,135.18h-41.75l13.01-135.18h-53.18l3.73-38.77h148.11l-3.73,38.77H424.65z"/>
	<path d="M564.79,248.3h-8.7h-9.94l-5.53,57.41h-41.75l16.74-173.95h66.11c43.74,0,67.13,22.86,63.66,58.89
		c-2.29,23.86-15.67,41.5-37.56,49.45l33.45,65.61h-49.45L564.79,248.3z M576.44,215c15.41,0,24.6-7.7,26.01-22.36
		c1.39-14.42-5.73-23.11-21.88-23.11h-26.84L549.35,215H576.44z"/>
	<path d="M721.34,276.88l-13.21,28.83h-43.98l83.84-173.95h47.47l50.61,173.95h-44.73l-7.66-28.83H721.34z M774.54,204.32
		c-4.08-14.41-7.01-25.34-7.23-25.6h-0.75c-0.28,0.25-5.28,10.93-12.14,25.35l-15.77,34.79h44.98L774.54,204.32z"/>
	<path d="M930.39,170.53l-3.2,33.29h64.36l-3.73,38.77h-64.37l-6.07,63.12h-41.75l16.74-173.95h124.5l-3.73,38.77H930.39z"/>
	<path d="M1132.03,128.27c53.18,0,88.11,37.28,82.99,90.46c-5.12,53.18-47.21,90.46-100.4,90.46s-88.11-37.28-83-90.46
		S1078.85,128.27,1132.03,128.27z M1118.42,269.67c28.83,0,51.62-19.87,54.6-50.94c3.02-31.31-15.95-51.19-44.78-51.19
		s-51.61,19.88-54.63,51.19C1070.64,249.8,1089.59,269.67,1118.42,269.67z"/>
	<path class="st0" d="M231.7,276.32L82.62,261.65l-3.44,34.91c-0.19,1.93,1.22,3.65,3.15,3.84l182.99,18.01
		c2,0.2,3.79-1.27,3.98-3.27l18.02-183.08c0.19-1.88-1.19-3.56-3.07-3.74l-35-3.44l0,0l-14.67,149.08
		C234.45,275.4,233.15,276.46,231.7,276.32z"/>
	<path d="M230.05,122.98L100.21,110.2c-1.47-0.14-2.78,0.93-2.92,2.4L84.51,242.44l34.6,3.4c2.11,0.21,3.98-1.33,4.19-3.44l8.5-86.4
		c0.21-2.14,2.12-3.71,4.26-3.5l86.1,8.47c2.28,0.22,4.3-1.44,4.52-3.71L230.05,122.98z"/>
	<g>
		<polygon points="1113.23,108.93 1078.55,108.93 1082.2,74.25 1116.87,74.25 		"/>
		<polygon points="1185.31,108.93 1150.63,108.93 1154.28,74.25 1188.95,74.25 		"/>
	</g>
</g>
</svg>
